<svg width="32" height="32" viewBox="0 0 32 32" fill="none" xmlns="http://www.w3.org/2000/svg">
  <!-- MongoDB Leaf Logo - Proper leaf shape -->
  <path d="M16 2C11.2 2 7.5 5.8 7.5 10.5c0 2.8 1.3 5.3 3.4 7 1.1 0.9 2.4 1.6 3.8 2.1v9.4c0 0.6 0.4 1 1 1h0.6c0.6 0 1-0.4 1-1v-9.4c1.4-0.5 2.7-1.2 3.8-2.1 2.1-1.7 3.4-4.2 3.4-7C24.5 5.8 20.8 2 16 2z" fill="#00ED64"/>
  
  <!-- Stem/trunk detail -->
  <path d="M15.7 21v8c0 0.2 0.1 0.3 0.3 0.3s0.3-0.1 0.3-0.3v-8c0-0.2-0.1-0.3-0.3-0.3s-0.3 0.1-0.3 0.3z" fill="#001E2B"/>
  
  <!-- Small accent -->
  <path d="M16 20.5v0.8c0 0.1 0 0.1 0 0.2v7.5c0 0.1 0 0.1 0 0v0z" fill="#ffffff" fill-opacity="0.1"/>
</svg>
